<?xml version="1.0" encoding="utf-8"?>
<!-- Generator: Adobe Illustrator 25.2.0, SVG Export Plug-In . SVG Version: 6.00 Build 0)  -->
<svg version="1.1" id="Capa_1" xmlns="http://www.w3.org/2000/svg" xmlns:xlink="http://www.w3.org/1999/xlink" x="0px" y="0px"
	 viewBox="0 0 595.3 601.4" style="enable-background:new 0 0 595.3 601.4;" xml:space="preserve">
<style type="text/css">
	.st0{fill:#FFFFFF;}
</style>
<g>
	<g>
		<path class="st0" d="M453.1,115c-18.8,0-34.1,15.3-34.1,34.1c0,18.8,15.3,34.1,34.1,34.1c18.8,0,34.1-15.3,34.1-34.1
			C487.2,130.3,471.9,115,453.1,115z"/>
		<path class="st0" d="M301.4,158.8c-79,0-143.3,64.3-143.3,143.3c0,79,64.3,143.3,143.3,143.3c79,0,143.3-64.3,143.3-143.3
			C444.7,223.1,380.4,158.8,301.4,158.8z M301.4,393.9c-50.6,0-91.8-41.2-91.8-91.8s41.2-91.8,91.8-91.8c50.6,0,91.8,41.2,91.8,91.8
			S352,393.9,301.4,393.9z"/>
		<path class="st0" d="M415.2,593.1H182.8C86.5,593.1,8,514.6,8,418.3V185.9C8,89.5,86.5,11.1,182.8,11.1h232.3
			c96.4,0,174.8,78.4,174.8,174.8v232.3C590,514.6,511.6,593.1,415.2,593.1z M182.8,65.9c-66.2,0-120.1,53.8-120.1,120v232.3
			c0,66.2,53.9,120.1,120.1,120.1h232.3c66.2,0,120.1-53.9,120.1-120.1V185.9c0-66.2-53.9-120-120.1-120H182.8z"/>
	</g>
</g>
</svg>
