<?xml version="1.0" encoding="utf-8"?>
<!-- Generator: Adobe Illustrator 25.2.0, SVG Export Plug-In . SVG Version: 6.00 Build 0)  -->
<svg version="1.1" id="Capa_1" xmlns="http://www.w3.org/2000/svg" xmlns:xlink="http://www.w3.org/1999/xlink" x="0px" y="0px"
	 viewBox="0 0 595.3 480" style="enable-background:new 0 0 595.3 480;" xml:space="preserve">
<style type="text/css">
	.st0{fill:#FFFFFF;}
</style>
<path class="st0" d="M585.9,59.6c-18.3,8.3-38.4,13.3-58.1,16.6c9.4-1.6,23.1-18.5,28.6-25.3c8.4-10.4,15.4-22.3,19.3-35.2
	c0.5-1,0.9-2.3-0.1-3c-1.3-0.5-2.1-0.2-3.1,0.3c-22,11.8-44.7,20.3-68.9,26.4c-2,0.5-3.5,0-4.8-1.3c-2-2.3-3.9-4.4-6-6.2
	c-10.2-8.7-21.1-15.4-33.4-20.5C443.1,4.8,425.4,2,408,3.1c-16.9,1.1-33.6,5.9-48.6,13.7c-15.1,7.9-28.5,18.8-39.2,32
	c-11.1,13.7-19.2,29.8-23.4,46.9c-4,16.5-3.7,32.8-1.2,49.5c0.4,2.8,0.1,3.1-2.4,2.8C198.5,133.9,120,100,56.3,27.4
	c-2.8-3.2-4.3-3.2-6.5,0.2C21.9,69.5,35.4,136.6,70.3,169.6c4.6,4.4,9.4,8.8,14.6,12.8c-1.9,0.4-25.1-2.1-45.7-12.8
	c-2.8-1.7-4.2-0.7-4.4,2.4c-0.3,4.5,0.1,8.7,0.7,13.6c5.4,42.4,34.7,81.6,74.9,96.8c4.8,2,10,3.8,15.2,4.6c-9.2,2-18.6,3.4-44.8,1.4
	c-3.3-0.6-4.5,1-3.3,4.1c19.7,53.8,62.3,69.8,94.2,78.9c4.3,0.7,8.5,0.7,12.8,1.7c-0.3,0.4-0.5,0.4-0.8,0.8
	c-10.6,16.1-47.3,28.1-64.3,34.1c-31.1,10.9-64.9,15.7-97.7,12.5c-5.3-0.8-6.4-0.7-7.8,0c-1.4,0.9-0.2,2.1,1.5,3.5
	c6.7,4.4,13.4,8.3,20.4,12.1c20.8,11.1,42.6,19.8,65.3,26.1c117.4,32.4,249.6,8.6,337.7-79c69.2-68.8,93.5-163.6,93.5-258.5
	c0-3.7,4.4-5.8,7-7.7c18-13.5,32.5-29.7,46-47.8c3-4.1,3-7.7,3-9.2c0-0.3,0-0.5,0-0.5C588.2,58.1,588.2,58.5,585.9,59.6z"/>
</svg>
